<svg xmlns:xlink="http://www.w3.org/1999/xlink" xmlns="http://www.w3.org/2000/svg" viewBox="152.04558587479934 139.128 869.8940609951845 768.18" style="max-height: 500px" width="869.8940609951845" height="768.18">
	<path d="M223.196 361.876C223.666 361.834 223.75 362.01 224.129 362.265C224.219 362.85 224.341 363.456 224.188 364.039C223.649 366.088 220.043 367.18 218.278 367.932Q219.087 369.936 219.921 371.929C221.053 370.832 222.161 370.064 223.743 369.772C224.521 369.629 224.813 369.722 225.459 370.147C225.666 370.568 225.722 370.888 225.701 371.352C225.586 373.915 222.415 373.525 220.955 374.876C220.893 376.194 221.48 377.684 221.834 378.957C223.88 377.342 225.413 376.32 228.083 376.129C228.595 376.501 228.809 376.705 229.054 377.291C228.964 377.887 228.858 378.293 228.488 378.782C226.995 380.754 223.298 383.192 220.841 383.517C220.501 383.386 220.264 383.247 220.033 382.956C217.505 379.761 214.54 368.015 215.13 364.322C216.231 362.964 221.418 362.293 223.196 361.876Z" transform="matrix(1.98288 0 0 1.98294 0.00012207 0)" fill="#0F217C"/>
	<path d="M203.458 368.392C204.235 368.412 205.026 368.47 205.728 368.837C208.771 370.427 210.629 375.956 211.598 378.994C212.289 381.16 212.711 383.588 211.611 385.686L210.77 385.767C208.809 384.157 206.683 377.406 205.578 374.777C204.753 378.042 204.067 380.563 202.121 383.384C199.808 382.602 197.962 381.768 196.079 380.198L195.628 380.339C195.306 381.647 195.79 383.446 195.932 384.796C196.095 386.346 196.195 388.754 195.173 390.006C194.682 390.061 194.635 390.048 194.252 389.75C192.79 388.606 192.151 385.273 191.9 383.521C191.581 381.288 190.065 374.579 191.441 372.739C193.881 372.366 197.837 376.924 199.987 378.284L200.372 378.525C201.364 375.138 202.318 371.732 203.458 368.392Z" transform="matrix(1.98288 0 0 1.98294 0.00012207 0)" fill="#0F217C"/>
	<path d="M242.876 349.793C228.229 354.891 212.981 358.356 198.101 362.715L170.28 370.826C163.256 372.877 156.177 375.181 148.96 376.454C145.147 377.127 141.47 377.173 137.657 376.478C130.588 375.19 124.049 370.564 120.034 364.646C118.333 362.139 117.254 358.8 116.302 355.921C114.34 349.993 112.867 343.866 111.152 337.858L101.367 303.866L94.4098 279.404C92.935 274.264 91.2 269.112 90.1735 263.86C89.4269 260.04 89.3939 255.861 90.1283 252.034C91.4815 244.981 95.2276 238.683 101.228 234.647C104.16 232.675 107.374 231.312 110.709 230.19C120.87 226.771 131.423 224.403 141.732 221.435L166.329 214.295C170.471 213.09 174.641 211.709 178.828 210.683C179.437 210.534 179.782 210.553 180.387 210.671C179.914 213.657 184.919 244.101 186.099 248.01C187.198 251.65 188.858 255.227 191.105 258.304C195.142 263.83 201.827 267.364 208.527 268.39C216.264 269.574 228.613 267.118 236.643 265.997C239.555 265.591 242.448 265.073 245.396 265.084C241.714 274.488 242.953 286.617 242.958 296.643L242.975 331.827C242.978 337.755 243.337 343.901 242.876 349.793Z" transform="matrix(1.98288 0 0 1.98294 0.00012207 0)" fill="#0F217C"/>
	<path d="M173.521 265.5C178.226 265.351 182.178 266.103 186.095 268.868C191.126 272.419 193.987 278.529 194.965 284.481C195.789 289.498 194.673 295.087 191.631 299.209C188.698 303.185 184.423 305.927 179.512 306.635C178.578 308.194 177.85 309.89 177.078 311.535C181.677 308.545 187.28 308.998 192.192 306.837C193.754 306.15 195.16 305.04 196.537 304.042C198.03 304.741 199.551 305.391 200.428 306.881C200.996 307.844 201.136 308.932 200.806 310.003C200.06 312.425 197.86 313.668 195.795 314.814C191.021 316.844 185.762 316.6 180.842 318.047C177.913 318.909 175.654 320.858 172.89 321.88C172.154 322.152 171.808 322.199 171.076 321.807C169.771 321.106 168.651 319.751 168.309 318.303C167.478 314.782 170.783 310.476 172.496 307.57C169.48 306.848 166.932 306.082 164.323 304.36C159.084 300.904 156.279 295.565 155.045 289.513C154.02 284.487 154.681 278.939 157.559 274.61C161.442 268.768 166.97 266.828 173.521 265.5Z" transform="matrix(1.98288 0 0 1.98294 0.00012207 0)" fill="#FEFEFE"/>
	<path d="M172.733 274.028C174.929 273.896 176.941 274.158 178.892 275.236C181.943 276.921 183.783 279.992 184.728 283.261C185.735 286.744 186.12 290.791 184.288 294.072C182.68 296.953 180.299 298.109 177.295 298.976C175.143 299.117 173.096 298.892 171.173 297.845C167.953 296.093 165.894 292.725 164.928 289.273C164.014 286.008 163.798 281.887 165.577 278.861C167.226 276.057 169.725 274.832 172.733 274.028Z" transform="matrix(1.98288 0 0 1.98294 0.00012207 0)" fill="#0F217C"/>
	<path d="M335.39 224.706L335.5 224.521L361.287 179.76C365.634 172.195 369.29 163.552 375.168 157.025C378.907 152.875 383.026 150.317 388.421 148.848C401.009 145.42 408.911 150.694 419.319 156.732L465.975 183.701C474.6 188.644 491.749 197.467 498.539 203.803C501.918 206.957 504.474 211.569 505.642 216.021C507.069 221.463 506.591 227.745 504.705 233.011C503.241 237.1 500.774 240.831 498.587 244.568Q494.602 251.331 490.711 258.149C479.424 277.899 468.192 297.762 456.552 317.301C452.078 324.812 446.004 330.741 437.332 332.961C422.466 336.766 407.511 324.124 395.004 317.547C395.519 315.406 395.053 309.123 395.047 306.595C395.027 297.358 395.339 288.015 394.957 278.794C394.586 269.817 392.413 262.239 385.588 256.025Q384.368 254.902 383.015 253.944Q381.662 252.986 380.198 252.207Q378.734 251.428 377.183 250.841Q375.632 250.255 374.019 249.87C364.954 247.618 354.896 248.621 345.623 248.618C338.004 248.615 330.244 248.325 322.64 248.697C324.063 242.363 331.999 231.124 335.39 224.706Z" transform="matrix(1.98288 0 0 1.98294 0.00012207 0)" fill="#22637A"/>
	<path d="M411.591 211.993C415.535 212.58 435.846 225.224 439.722 228.353C438.972 229.748 438.428 231.567 437.264 232.668C433.832 235.913 426.013 238.201 421.547 240.104C415.543 242.663 409.51 245.117 403.74 248.176C404.978 248.767 414.919 254.122 415.092 254.146C415.847 254.249 417.259 249.492 420.236 246.685L420.512 246.429C423.46 247.076 425.081 247.998 427.165 250.108C424.77 255.331 422.243 260.176 418.688 264.713L418.465 264.805C416.001 264.677 392.19 250.556 389.297 248.373L389.431 247.977C390.14 245.947 391.078 244.326 392.801 242.994C396.141 240.414 400.53 239.223 404.38 237.59C411.316 234.65 418.397 231.776 425.179 228.502C421.689 226.594 418.381 224.151 414.867 222.382L414.43 222.753C414.177 224.469 412.941 226.208 411.889 227.556C411.145 228.509 410.156 229.376 408.895 229.466C406.672 229.625 404.689 227.65 403.117 226.335C405.421 221.19 408.05 216.398 411.591 211.993Z" transform="matrix(1.98288 0 0 1.98294 0.00012207 0)" fill="#FEFEFE"/>
	<path d="M180.387 210.671C180.396 210.601 180.407 210.532 180.415 210.462C180.851 206.533 179.273 199.976 178.651 195.952C177.326 187.394 176.298 178.788 175.032 170.22C172.696 154.396 167.758 136.486 182.09 124.653C185.438 121.889 188.893 120.228 193.066 119.144C199.663 117.43 206.57 116.773 213.31 115.858L240.902 112.029L272.328 107.6C280.242 106.481 289.115 104.441 297.121 105.257C304.253 105.983 311.459 109.627 315.937 115.275C318.692 118.75 320.539 123.056 321.62 127.333C323.142 133.356 323.661 139.662 324.471 145.808L327.962 170.95L333.144 207.642C333.91 213.223 335.16 219.105 335.39 224.706C331.999 231.124 324.063 242.363 322.64 248.697C322.557 248.71 322.473 248.725 322.39 248.736C319.212 249.161 315.709 248.411 312.499 248.356C305.979 248.244 299.438 248.378 292.916 248.372C284.715 248.364 270.536 247.532 262.976 249.916C256.994 251.803 252.187 255.299 248.349 260.247C247.6 261.213 245.452 263.889 245.396 265.084C242.448 265.073 239.555 265.591 236.643 265.997C228.613 267.118 216.264 269.574 208.527 268.39C201.827 267.364 195.142 263.83 191.105 258.304C188.858 255.227 187.198 251.65 186.099 248.01C184.919 244.101 179.914 213.657 180.387 210.671Z" transform="matrix(1.98288 0 0 1.98294 0.00012207 0)" fill="#357FCC"/>
	<path d="M267.272 169.231C268.498 169.046 269.761 169.032 270.999 168.966C271.703 170.19 272.469 171.646 272.599 173.075C272.831 175.633 270.423 175.486 269.16 177.003C268.679 178.781 270.648 188.09 271.018 190.81C271.818 196.684 272.984 203.878 269.063 208.918C266.066 212.77 261.293 214.559 256.576 215.129C252.45 215.628 247.821 214.858 244.51 212.198C237.459 206.533 237.07 189.768 236.084 181.134C235.448 181.196 234.747 181.296 234.11 181.245C233.388 181.187 232.56 180.73 232.109 180.162C231.011 178.778 231.356 176.713 231.606 175.103L231.953 174.628C234.801 173.045 245.622 171.679 248.744 172.492C249.317 173.135 249.409 173.904 249.487 174.75C249.628 176.261 249.848 177.852 248.826 179.09C247.724 179.707 246.393 179.567 245.159 179.585C245.731 185.55 246.426 201.595 250.981 205.525C252.215 206.589 253.745 207.017 255.358 206.901C257.489 206.746 259.609 205.872 260.949 204.162C261.856 203.004 262.33 201.599 262.487 200.147C263.157 193.942 260.692 184.151 259.933 177.638C258.974 177.848 257.863 178.164 256.878 178.128C256.174 178.103 255.436 177.765 255 177.207C253.862 175.753 254.35 172.883 254.478 171.173C258.734 170.219 262.92 169.552 267.272 169.231Z" transform="matrix(1.98288 0 0 1.98294 0.00012207 0)" fill="#FEFEFE"/>
	<path d="M245.396 265.084C245.452 263.889 247.6 261.213 248.349 260.247C252.187 255.299 256.994 251.803 262.976 249.916C270.536 247.532 284.715 248.364 292.916 248.372C299.438 248.378 305.979 248.244 312.499 248.356C315.709 248.411 319.212 249.161 322.39 248.736C322.473 248.725 322.557 248.71 322.64 248.697C330.244 248.325 338.004 248.615 345.623 248.618C354.896 248.621 364.954 247.618 374.019 249.87Q375.632 250.255 377.183 250.841Q378.734 251.428 380.198 252.207Q381.662 252.986 383.015 253.944Q384.368 254.902 385.588 256.025C392.413 262.239 394.586 269.817 394.957 278.794C395.339 288.015 395.027 297.358 395.047 306.595C395.053 309.123 395.519 315.406 395.004 317.547C394.986 317.642 394.967 317.736 394.95 317.83C394.277 321.622 394.606 325.857 394.619 329.706L394.746 354.35C394.801 362.444 395.681 371.419 393.604 379.294C392.052 385.177 388.692 390.889 383.705 394.481C379.911 397.215 375.276 399.301 370.637 399.993C363.884 400.999 356.779 400.567 349.957 400.572L317.684 400.583L286.322 400.558C279.472 400.545 272.163 401.005 265.4 399.796C258.637 398.587 252.17 394.251 248.352 388.586C242.138 379.369 243.295 368.638 243.282 358.107C243.279 355.428 243.378 352.433 242.876 349.793C243.337 343.901 242.978 337.755 242.975 331.827L242.958 296.643C242.953 286.617 241.714 274.488 245.396 265.084Z" transform="matrix(1.98288 0 0 1.98294 0.00012207 0)" fill="#67D4F3"/>
	<path d="M310.459 299.502C317.077 299.516 323.829 299.008 330.427 299.521C331.785 299.626 333.117 299.775 334.035 300.848C334.619 302.821 334.176 304.972 333.866 306.96C330.43 308.121 326.827 307.792 323.274 307.498Q323.336 321.008 323.237 334.517C325.794 334.512 331.939 333.473 333.983 335.126C334.848 335.824 335.095 337.028 335.146 338.083C335.205 339.304 335.097 340.896 334.161 341.803C332.697 343.219 328.018 342.514 325.949 342.504C320.177 342.463 310.094 343.392 304.927 342.448C304.2 342.315 303.48 342.152 303.065 341.511C301.898 339.708 302.641 336.694 303.001 334.728C306.733 334.752 310.487 334.551 314.219 334.438L314.29 307.453C312.022 307.766 309.306 308.04 307.023 307.839C305.931 307.742 304.841 307.449 304.132 306.553C302.747 304.801 303.33 301.844 303.488 299.759L310.459 299.502Z" transform="matrix(1.98288 0 0 1.98294 0.00012207 0)" fill="#FEFEFE"/>
</svg>